<?xml version="1.0" standalone="no"?>
<!DOCTYPE svg PUBLIC "-//W3C//DTD SVG 20010904//EN"
 "http://www.w3.org/TR/2001/REC-SVG-20010904/DTD/svg10.dtd">
<svg version="1.0" xmlns="http://www.w3.org/2000/svg"
 width="260.000000pt" height="260.000000pt" viewBox="0 0 260.000000 260.000000"
 preserveAspectRatio="xMidYMid meet">
<metadata>
Created by potrace 1.11, written by Peter Selinger 2001-2013
</metadata>
<g transform="translate(0.000000,260.000000) scale(0.100000,-0.100000)"
fill="#000000" stroke="none">
<path d="M0 1300 l0 -1300 1300 0 1300 0 0 1300 0 1300 -1300 0 -1300 0 0
-1300z m1372 1240 c20 -6 49 -25 63 -42 26 -30 27 -37 23 -113 -4 -69 -17
-117 -52 -192 -1 -1 -28 5 -61 13 -33 7 -79 14 -101 14 l-42 0 -6 53 c-8 67 7
169 31 210 17 29 73 67 98 67 6 0 27 -5 47 -10z m-317 -80 c21 -40 19 -45 -11
-26 -37 25 -70 18 -66 -14 5 -37 19 -47 43 -32 24 15 24 15 33 -15 6 -20 4
-23 -18 -23 -31 0 -40 -14 -26 -39 15 -28 50 -13 72 30 l17 34 1 -47 0 -47
-52 -15 c-109 -31 -111 -31 -97 -8 17 27 -14 149 -45 174 -11 10 -19 18 -16
19 3 0 32 9 65 19 82 24 82 24 100 -10z m605 -19 c32 -23 36 -45 12 -69 -13
-13 -16 -23 -9 -34 16 -24 0 -65 -27 -72 -20 -5 -114 16 -139 31 -5 3 -2 10 7
16 23 19 64 157 46 157 -5 0 -10 4 -10 9 0 13 90 -16 120 -38z m-812 -14 c-1
-12 17 -58 40 -102 33 -60 40 -80 30 -86 -23 -15 -40 -10 -104 37 -35 25 -64
43 -64 40 0 -11 42 -85 53 -94 7 -6 21 -12 32 -14 17 -3 15 -7 -16 -26 -45
-27 -49 -27 -49 1 -1 12 -7 33 -15 47 -14 25 -14 25 -15 -13 0 -29 -7 -46 -30
-69 -28 -27 -36 -30 -73 -25 -110 15 -118 162 -9 184 46 9 62 6 86 -15 19 -17
19 -16 1 11 -10 15 -27 27 -39 27 -19 1 -18 3 9 25 17 14 36 25 43 25 7 0 36
-16 64 -35 29 -19 54 -33 56 -31 8 9 -50 86 -66 87 -10 0 -5 6 15 15 17 7 34
18 38 24 10 16 15 12 13 -13z m1010 -72 c78 -90 -74 -222 -154 -134 -41 45
-18 135 41 160 34 15 88 2 113 -26z m102 -59 c7 -10 8 -16 2 -16 -11 0 -37
-68 -29 -76 8 -8 47 19 47 33 0 23 22 25 43 4 12 -11 16 -21 10 -21 -12 0 -47
-79 -39 -87 8 -8 74 36 78 52 2 10 11 7 33 -11 29 -23 29 -24 7 -24 -13 0 -57
-19 -98 -41 -41 -23 -78 -39 -81 -36 -3 3 2 26 10 51 9 26 13 46 11 46 -3 0
-25 -12 -50 -26 -24 -14 -44 -21 -44 -15 0 5 11 45 25 88 14 43 25 86 25 96 0
14 4 16 18 8 10 -5 24 -17 32 -25z m501 7 c40 -24 63 -75 54 -121 -8 -42 -50
-120 -94 -172 l-29 -35 -39 23 c-21 13 -60 33 -87 44 -47 21 -48 22 -43 59 8
58 57 157 94 189 40 35 97 40 144 13z m-2061 -191 c0 -26 117 -105 147 -99 13
2 23 2 23 0 0 -3 -15 -25 -32 -50 -26 -35 -34 -41 -36 -27 -3 16 -70 74 -86
74 -8 0 6 -31 31 -69 13 -19 23 -37 23 -41 0 -4 -19 -4 -42 1 -77 15 -86 12
-47 -17 20 -15 43 -24 57 -21 28 5 28 -7 -3 -47 -13 -18 -32 -50 -41 -71 -13
-33 -17 -36 -25 -22 -12 21 -38 22 -45 2 -4 -8 -10 -15 -15 -15 -4 0 -6 7 -3
15 5 11 -1 15 -22 15 -22 0 -25 -3 -16 -12 15 -15 15 -28 1 -28 -15 0 -109 69
-109 81 0 4 53 10 117 11 146 4 153 14 61 82 -48 36 -69 45 -86 41 l-24 -6 23
33 c12 18 24 34 25 36 1 2 19 -1 40 -6 22 -6 51 -13 67 -16 l27 -6 -30 53
c-35 62 -36 70 -12 102 20 29 32 31 32 7z m1774 -57 c-16 -7 -48 -29 -72 -50
-34 -30 -40 -40 -31 -51 6 -8 22 -14 35 -14 27 0 32 -15 9 -24 -9 -3 -12 -12
-9 -23 3 -10 -20 9 -50 41 -55 58 -68 80 -43 71 20 -8 127 83 127 108 1 20 3
19 31 -12 l31 -34 -28 -12z m-861 54 l57 -12 0 -57 0 -58 -42 13 c-24 7 -69
15 -100 19 -32 4 -58 9 -58 10 0 2 5 18 11 37 6 19 12 40 15 47 4 15 44 15
117 1z m962 -179 c32 -18 50 -34 50 -46 0 -11 6 -30 14 -43 12 -21 11 -26 -14
-50 l-27 -26 4 30 c3 17 3 24 1 18 -6 -17 -18 -16 -31 0 -6 7 -39 26 -74 42
-35 16 -65 31 -67 32 -2 1 8 21 23 43 31 47 37 47 121 0z m-951 -40 c36 -12
66 -23 66 -25 0 -2 11 -55 25 -119 14 -64 25 -122 25 -129 0 -8 -24 -29 -52
-47 -66 -43 -69 -45 -126 -100 -107 -103 -165 -221 -165 -341 l-1 -76 -50 11
c-40 9 -54 17 -64 39 -40 83 -55 357 -28 488 16 74 34 114 108 237 l49 82 74
0 c45 0 98 -8 139 -20z m839 -126 c26 -13 63 -36 83 -50 29 -23 34 -31 30 -58
-3 -17 -8 -61 -11 -98 -6 -65 -6 -66 15 -61 12 3 24 13 28 21 4 13 7 12 13 -4
15 -38 10 -52 -22 -59 -22 -5 -34 -3 -40 6 -6 10 -9 7 -9 -11 0 -14 -16 -59
-36 -100 l-37 -75 -26 58 c-15 32 -30 55 -33 52 -3 -4 -11 9 -17 28 -7 20 -18
38 -26 41 -8 3 -15 13 -15 21 0 9 -4 14 -9 10 -5 -3 -13 3 -16 12 -11 30 -81
84 -139 107 l-55 23 52 50 c29 27 74 68 100 90 45 39 50 41 85 31 20 -5 59
-21 85 -34z m222 -23 c16 -31 16 -33 0 -28 -9 4 -32 0 -52 -8 -43 -18 -43 -18
-43 -2 0 7 16 21 35 30 20 9 35 24 35 34 0 20 3 17 25 -26z m-2023 -59 c16 4
12 -38 -7 -67 -7 -11 -21 -46 -31 -78 -10 -31 -21 -57 -26 -57 -4 0 -8 4 -8 9
0 15 -157 63 -180 56 -24 -8 -24 -4 -4 66 20 68 33 82 68 73 l27 -6 -30 -19
c-34 -20 -39 -42 -16 -65 20 -21 59 -1 52 27 -4 13 0 19 11 19 25 0 47 -16 33
-24 -16 -11 -13 -43 5 -50 48 -18 67 17 35 63 -30 41 -26 46 17 20 l37 -22
-24 26 c-26 29 -21 53 9 37 11 -6 25 -9 32 -8z m2038 -50 c14 -12 25 -35 29
-63 6 -40 4 -47 -16 -62 -27 -21 -29 -16 -8 16 13 20 13 26 -1 46 -22 30 -56
42 -93 31 -30 -8 -31 -7 -31 21 0 28 1 29 49 29 32 0 56 -6 71 -18z m-614 -22
c60 -9 83 -17 92 -31 10 -15 9 -19 -1 -19 -7 0 -18 5 -25 12 -7 7 -12 9 -12 5
0 -4 -10 -2 -22 4 -26 14 -204 23 -211 12 -3 -5 34 -8 81 -9 58 -1 106 -8 145
-21 31 -11 57 -16 57 -10 0 5 7 7 15 3 8 -3 15 0 16 7 0 9 2 9 6 0 2 -7 11
-13 19 -13 8 0 14 -5 14 -12 0 -6 3 -8 6 -5 9 8 67 -55 104 -113 16 -25 34
-50 39 -56 15 -18 61 -113 59 -121 -1 -5 4 -27 11 -51 6 -23 14 -63 16 -90 l4
-47 -16 30 c-9 17 -22 37 -30 46 -7 9 -16 27 -18 39 -5 23 -25 52 -25 35 0 -5
-7 0 -16 11 -8 10 -13 13 -9 6 4 -7 8 -25 10 -41 3 -25 1 -28 -22 -23 -19 4
-24 1 -18 -7 4 -7 13 -10 20 -7 31 11 71 -32 120 -133 41 -84 53 -101 72 -101
27 0 29 -16 10 -75 -18 -60 -27 -70 -87 -100 -85 -43 -98 -70 -55 -119 14 -16
26 -33 26 -38 1 -4 3 -12 4 -18 1 -5 3 -16 4 -24 0 -7 12 -30 26 -50 13 -20
22 -36 19 -36 -2 0 1 -10 7 -22 11 -21 11 -22 -5 -9 -9 8 -15 20 -12 28 3 7 2
13 -3 13 -5 0 -18 21 -30 48 -30 68 -39 81 -38 49 1 -15 8 -29 15 -32 6 -2 12
-9 12 -15 0 -18 -15 -11 -34 18 -9 15 -15 19 -12 10 6 -21 -4 -23 -24 -6 -12
11 -12 10 -1 -5 9 -11 10 -17 2 -17 -6 0 -11 -4 -11 -10 0 -5 7 -10 15 -10 18
0 31 -48 17 -62 -7 -7 -13 -3 -18 13 -4 13 -8 26 -9 29 0 3 -9 16 -19 30 -12
17 -16 19 -12 6 7 -20 -29 -60 -45 -50 -5 3 -9 1 -9 -4 0 -10 -65 -42 -97 -48
-13 -3 -26 3 -33 13 -9 15 -10 14 -4 -6 4 -16 3 -21 -5 -17 -34 21 -12 -64 25
-102 8 -7 14 -20 14 -28 0 -23 104 -16 155 9 37 19 104 83 105 100 0 5 8 19
18 32 18 23 19 23 34 5 9 -10 18 -26 21 -37 5 -19 8 25 11 142 2 58 -3 80 -27
130 -21 46 -23 54 -8 35 20 -25 21 -25 21 -3 0 12 -8 27 -17 32 -15 9 -16 10
-2 11 9 0 24 -17 34 -40 10 -23 23 -43 28 -47 5 -3 1 9 -7 26 -9 17 -14 31
-11 31 3 0 1 9 -5 20 -6 11 -7 20 -3 20 4 0 23 -34 42 -75 18 -41 36 -75 40
-75 3 0 6 -30 5 -68 0 -50 -6 -76 -22 -102 -12 -19 -24 -48 -28 -65 -3 -16 -9
-34 -13 -40 -3 -5 -6 -17 -6 -25 0 -8 -3 -19 -6 -25 -4 -5 -10 -24 -13 -41 -6
-26 -18 -36 -88 -70 -45 -21 -86 -44 -93 -51 -6 -6 -23 -12 -36 -14 -23 -3
-99 18 -109 30 -9 11 -135 51 -160 51 -32 0 -67 37 -51 53 7 7 11 7 11 1 0 -5
15 -18 33 -28 l32 -18 -25 24 c-50 48 -90 69 -90 48 0 -5 7 -10 15 -10 8 0 15
-4 15 -10 0 -16 -13 -12 -44 15 -16 14 -26 25 -22 25 3 0 -10 31 -29 70 -33
66 -49 111 -21 61 8 -15 16 -20 20 -13 4 7 2 21 -4 32 -7 13 -7 20 0 20 5 0
10 -6 10 -14 0 -7 7 -20 17 -27 15 -13 16 -11 10 16 -5 20 2 12 21 -25 15 -30
40 -66 56 -79 15 -14 33 -30 40 -36 23 -23 96 -65 96 -55 0 5 -4 10 -10 10 -5
0 -10 5 -10 11 0 5 4 8 9 5 5 -3 12 1 15 10 3 8 10 13 15 9 5 -3 12 -1 16 5 3
5 -1 10 -9 10 -9 0 -19 12 -22 28 -4 15 -11 30 -16 33 -5 3 -10 15 -10 25 -1
11 -10 28 -21 39 -14 15 -17 16 -12 3 4 -11 -1 -20 -15 -28 -32 -17 -41 -1
-52 87 -1 6 -16 14 -34 18 -25 4 -47 -1 -91 -23 l-58 -30 -67 25 c-50 18 -68
30 -68 43 0 10 6 20 13 23 8 2 -2 32 -33 98 -47 100 -58 171 -30 189 8 5 11
12 6 17 -4 4 -12 0 -17 -9 -8 -15 -13 -16 -29 -5 -11 6 -20 17 -20 24 0 7 -4
13 -8 13 -11 0 -8 -57 3 -68 4 -4 4 4 0 17 -9 28 9 21 26 -11 8 -14 8 -18 0
-14 -14 9 -4 -48 16 -89 14 -28 12 -27 -24 10 -94 99 -162 217 -177 310 -2 11
-7 38 -11 60 -10 47 -13 106 -7 119 9 17 28 -60 26 -101 -2 -23 1 -45 5 -47 4
-3 6 14 4 37 -3 41 -3 41 12 17 20 -34 19 -24 -6 45 -12 33 -21 77 -21 97 1
35 25 95 45 109 5 3 9 10 8 15 -1 18 91 121 152 171 25 20 121 66 157 75 19 5
44 11 55 14 11 3 40 8 65 10 25 3 46 7 48 9 2 1 11 1 20 -1 9 -1 53 -8 98 -14z
m-1643 -127 c-13 -8 -23 -23 -23 -33 0 -14 13 -18 82 -23 70 -6 83 -4 94 11
12 15 13 10 14 -33 0 -27 -5 -57 -10 -65 -8 -13 -10 -13 -10 2 0 23 -30 30
-110 26 -64 -3 -90 -20 -51 -33 31 -10 25 -26 -6 -19 -43 10 -46 17 -41 94 4
76 13 90 58 89 l25 0 -22 -16z m186 -220 c25 -15 69 -49 97 -75 l52 -49 -54
-80 c-30 -44 -54 -87 -54 -95 0 -11 -6 -13 -22 -8 -120 36 -194 82 -236 144
-40 59 -17 138 51 181 41 26 103 19 166 -18z m1796 -92 c2 -11 0 -21 -4 -21
-10 0 -21 37 -13 44 8 8 12 2 17 -23z m-1465 -155 c0 -2 -13 -19 -28 -39 -22
-27 -50 -76 -79 -135 0 -2 -22 12 -47 31 l-45 35 25 47 c13 26 36 62 49 79
l25 33 50 -24 c28 -13 50 -25 50 -27z m262 -50 c175 -34 210 -51 244 -118 33
-66 72 -116 150 -193 34 -33 69 -75 78 -93 17 -32 17 -34 -3 -51 l-20 -18 24
-21 c14 -12 36 -24 49 -28 38 -9 39 -32 6 -84 -48 -75 -55 -79 -132 -69 -113
14 -188 38 -313 99 -144 69 -200 117 -302 253 l-73 98 18 47 c28 73 118 202
141 202 4 0 64 -11 133 -24z m-717 -56 l-29 -30 41 0 c28 0 43 -5 47 -16 9
-22 8 -24 -9 -24 -20 0 -78 -29 -87 -44 -8 -13 -13 -8 -22 21 -6 18 -2 22 23
28 44 10 48 25 7 25 -42 0 -44 5 -14 37 21 22 21 24 3 17 -11 -4 -28 -14 -37
-22 -10 -8 -18 -13 -18 -9 0 3 -3 12 -6 20 -4 10 5 16 30 21 19 4 45 15 58 26
23 18 23 18 32 -1 7 -15 3 -26 -19 -49z m100 -120 c13 -14 16 -28 11 -52 -5
-28 -4 -31 7 -16 12 15 14 15 25 -3 14 -22 15 -30 5 -27 -12 4 -72 -34 -77
-48 -3 -7 2 -18 9 -24 11 -9 22 -7 49 9 19 12 36 27 38 33 2 6 16 -6 31 -25
26 -35 27 -38 13 -72 -17 -41 -6 -46 22 -10 11 13 22 22 26 18 3 -3 0 -13 -7
-21 -10 -13 -9 -14 9 -8 15 4 28 -3 52 -27 30 -31 31 -35 17 -53 -15 -18 -15
-18 -13 0 5 32 -21 29 -57 -7 -33 -33 -35 -34 -51 -16 -14 16 -15 19 -2 19 14
0 68 49 68 62 0 20 -39 11 -67 -15 -29 -27 -60 -30 -50 -3 3 6 13 29 22 51
l16 40 -35 -36 c-22 -24 -38 -33 -44 -27 -6 6 6 24 34 50 24 22 41 44 39 49
-3 4 -26 -3 -52 -17 -41 -21 -49 -23 -67 -10 -24 15 -33 51 -17 70 9 11 5 15
-17 19 -41 8 -61 57 -38 92 21 32 74 34 101 5z m1844 -330 c18 -38 21 -54 13
-62 -8 -8 -12 -8 -15 3 -5 19 -23 70 -32 92 -4 9 -3 17 2 17 4 0 19 -23 32
-50z m41 -17 c0 -7 -4 -13 -9 -13 -10 0 -21 25 -21 48 1 15 3 14 15 -2 8 -11
15 -26 15 -33z m-102 -7 c8 -19 8 -26 -1 -30 -7 -2 -4 -5 6 -5 9 -1 17 4 17 9
0 19 17 10 28 -15 8 -17 8 -25 1 -25 -6 0 -7 -4 -4 -10 10 -17 -7 -11 -22 8
-13 15 -13 15 -3 -5 8 -18 6 -26 -15 -47 -14 -15 -32 -26 -39 -26 -8 0 -20 -7
-27 -16 -12 -15 -15 -14 -31 6 -10 12 -18 28 -18 35 0 19 30 27 36 10 9 -23
26 -18 19 5 -9 28 21 38 41 14 15 -18 15 -18 6 1 -5 11 -7 26 -5 33 3 6 1 12
-5 12 -12 0 -30 42 -25 58 7 20 29 14 41 -12z m-1492 -3 c-3 -10 -10 -39 -17
-65 -10 -41 -14 -46 -29 -38 -12 6 -16 17 -13 35 3 14 9 25 14 25 5 0 9 5 9
10 0 6 -11 3 -25 -6 -14 -9 -22 -21 -19 -26 4 -6 -3 -5 -16 2 -21 11 -19 13
32 46 60 38 71 41 64 17z m1445 -66 c-8 -8 -14 -8 -23 1 -18 18 -27 15 -21 -8
8 -31 -31 -26 -45 5 -17 37 -15 45 11 45 12 0 31 10 41 22 l19 22 15 -38 c11
-28 12 -40 3 -49z m-1295 -55 l-6 -47 21 24 c11 13 18 30 15 38 -7 17 4 16 28
-2 11 -8 14 -15 7 -15 -6 0 -26 -23 -43 -50 -37 -60 -52 -54 -47 19 2 28 3 51
3 51 -8 0 -38 -59 -37 -72 2 -15 -2 -15 -25 -5 -16 7 -20 13 -11 15 20 4 60
77 53 96 -10 27 -23 18 -52 -34 -15 -27 -30 -50 -33 -50 -3 0 -14 7 -25 15
-15 12 -16 14 -3 15 9 0 26 22 40 49 l24 48 49 -24 48 -25 -6 -46z m1198 49
c9 -16 12 -31 9 -35 -4 -3 -2 -6 4 -6 11 0 36 -50 25 -51 -4 0 -15 -2 -24 -4
-10 -2 -15 2 -12 10 3 7 -2 19 -10 28 -12 12 -13 17 -3 20 8 4 6 6 -4 6 -17 1
-42 45 -32 55 14 14 33 4 47 -23z m-54 -1 c0 -4 11 -24 25 -44 23 -34 26 -56
6 -56 -12 0 -32 50 -25 62 4 6 2 8 -4 4 -12 -7 -44 33 -36 45 5 9 34 0 34 -11z
m-72 -17 c4 -14 -13 -18 -21 -5 -2 4 -2 0 1 -8 13 -45 11 -51 -7 -20 -11 19
-20 38 -21 41 0 12 43 4 48 -8z m22 -43 c12 -22 10 -41 -5 -52 -15 -12 -22
-10 -29 8 -4 11 -2 15 8 11 22 -9 26 3 9 29 -9 14 -11 24 -5 24 6 0 16 -9 22
-20z m-923 -14 c2 -1 -6 -26 -17 -54 -18 -46 -18 -53 -5 -58 8 -4 22 -1 30 6
8 7 15 8 15 2 0 -22 -26 -31 -62 -21 l-36 9 16 32 c9 18 16 47 16 65 1 28 4
32 21 27 11 -4 21 -7 22 -8z m132 -133 c7 -23 6 -33 -2 -33 -18 0 -32 13 -32
30 0 8 -8 16 -17 18 -11 2 -18 -3 -18 -12 0 -9 -8 -16 -20 -16 -17 0 -15 7 20
53 22 28 40 57 41 62 1 6 5 -8 10 -30 6 -22 14 -55 18 -72z m83 75 c-7 -7 -12
-19 -12 -27 0 -11 6 -9 23 7 19 18 35 22 89 22 51 0 67 -4 72 -16 9 -24 7 -29
-6 -16 -20 20 -48 15 -48 -9 0 -16 5 -20 20 -16 13 3 20 0 20 -9 0 -8 -7 -14
-15 -14 -8 0 -15 -9 -15 -20 0 -22 20 -26 38 -8 9 9 12 8 12 -4 0 -15 -38 -28
-81 -28 -16 0 -17 3 -7 19 15 25 -1 105 -22 108 -8 2 -26 -5 -39 -15 l-23 -19
21 -41 c18 -36 19 -42 6 -42 -9 0 -18 8 -22 18 -9 26 -24 42 -34 36 -5 -3 -5
-14 1 -25 9 -16 7 -19 -10 -19 -16 0 -20 5 -16 18 3 9 7 38 8 64 3 43 5 48 28
48 19 0 21 -3 12 -12z m277 -23 c3 -19 3 -19 -16 -2 -11 9 -25 17 -31 17 -21
0 -13 -30 11 -39 61 -24 55 -81 -9 -81 -27 0 -37 5 -43 23 -11 28 -3 37 13 14
15 -20 56 -23 56 -4 0 7 -15 20 -32 28 -58 25 -46 72 17 67 21 -2 31 -9 34
-23z"/>
<path d="M1597 2433 c-4 -3 -7 -17 -7 -30 0 -18 5 -23 25 -23 14 0 28 7 31 15
11 27 -30 58 -49 38z"/>
<path d="M1566 2333 c-8 -29 7 -45 39 -41 26 4 32 38 9 55 -27 20 -41 16 -48
-14z"/>
<path d="M618 2283 c-40 -10 -30 -94 13 -121 44 -28 84 20 59 70 -15 28 -41
58 -49 57 -3 -1 -14 -3 -23 -6z"/>
<path d="M1772 2357 c-29 -17 -48 -44 -55 -84 -5 -27 -2 -36 17 -48 33 -22 70
-3 96 50 25 52 25 60 -2 79 -27 19 -27 19 -56 3z"/>
<path d="M1920 1543 c0 -7 5 -15 10 -18 6 -3 19 -23 30 -43 19 -35 20 -35 13
-7 -6 30 -53 90 -53 68z"/>
<path d="M1616 1489 c-34 -27 -36 -79 -4 -109 38 -35 90 -25 114 22 13 25 13
35 3 59 -21 52 -68 63 -113 28z"/>
<path d="M1990 1475 c27 -36 50 -59 50 -49 0 13 -11 26 -40 49 -24 20 -25 20
-10 0z"/>
<path d="M1783 1424 c-20 -20 -24 -31 -19 -57 12 -64 82 -88 124 -44 31 33 29
80 -4 106 -36 28 -70 26 -101 -5z"/>
<path d="M1272 1425 c-7 -8 -9 -15 -4 -15 5 0 15 7 22 15 16 19 -1 19 -18 0z"/>
<path d="M1215 1348 c-35 -53 -41 -68 -27 -68 4 0 13 12 19 28 6 15 21 42 33
60 12 17 19 32 16 32 -3 0 -21 -24 -41 -52z"/>
<path d="M1625 1305 c-14 -13 -25 -36 -25 -50 0 -33 42 -75 75 -75 33 0 75 42
75 75 0 14 -11 37 -25 50 -13 14 -36 25 -50 25 -14 0 -37 -11 -50 -25z"/>
<path d="M1167 1262 c-9 -14 -17 -65 -9 -57 4 3 7 10 8 13 0 4 4 15 9 25 8 19
1 35 -8 19z"/>
<path d="M1907 1098 c-15 -5 -25 -14 -22 -19 3 -4 -5 -11 -17 -14 -31 -8 -68
-64 -67 -101 l1 -29 8 33 c8 33 47 75 112 120 35 23 30 27 -15 10z"/>
<path d="M2013 1067 c-4 -7 -26 -21 -49 -31 -52 -22 -94 -61 -94 -86 0 -10 -5
-22 -10 -25 -6 -4 -8 -11 -5 -16 11 -17 -6 -49 -33 -64 -15 -8 -22 -15 -17
-15 6 -1 20 -3 33 -4 13 -2 30 -12 38 -24 8 -12 28 -29 44 -37 25 -13 34 -13
82 2 56 18 138 68 138 84 0 5 -11 2 -25 -7 -14 -9 -28 -14 -31 -11 -3 3 4 8
15 12 12 3 21 11 21 16 0 5 7 9 16 7 17 -3 19 3 31 73 5 35 -13 116 -24 105
-3 -3 -14 4 -26 15 -22 20 -67 26 -67 9 0 -5 -5 -10 -11 -10 -5 0 -7 5 -4 10
3 6 2 10 -4 10 -5 0 -14 -6 -18 -13z m48 -86 c62 -62 20 -171 -65 -171 -25 0
-45 8 -67 28 -26 24 -32 36 -32 72 0 36 6 48 32 72 43 39 92 38 132 -1z"/>
<path d="M1949 980 c-29 -17 -43 -66 -29 -100 22 -53 87 -68 128 -30 40 38 37
93 -7 127 -19 15 -69 16 -92 3z m92 -42 c23 -44 -16 -93 -63 -80 -44 11 -47
85 -6 101 30 11 56 3 69 -21z"/>
<path d="M1960 930 c-15 -28 4 -60 35 -60 31 0 50 32 35 60 -6 12 -21 20 -35
20 -14 0 -29 -8 -35 -20z"/>
<path d="M1727 986 c3 -15 9 -29 14 -31 10 -7 2 36 -10 48 -5 5 -6 -2 -4 -17z"/>
<path d="M1681 980 c14 -31 19 -36 19 -24 0 6 -7 19 -16 30 -14 18 -14 18 -3
-6z"/>
<path d="M1530 910 c-48 -17 -106 -48 -65 -35 11 4 28 8 38 10 10 2 26 6 35 9
51 16 95 17 118 1 25 -16 33 -12 11 8 -26 24 -82 27 -137 7z"/>
<path d="M2176 881 c-13 -20 -25 -62 -17 -57 5 3 14 19 19 36 10 29 9 40 -2
21z"/>
<path d="M1570 841 c-14 -5 -41 -16 -60 -26 -19 -10 -44 -19 -55 -20 -11 -1
-23 -3 -26 -4 -12 -3 -37 -78 -34 -102 5 -43 22 -65 72 -95 50 -29 105 -38
136 -22 10 5 28 11 39 13 12 3 24 8 27 12 3 5 23 19 43 33 26 17 38 33 39 50
2 32 2 28 -5 73 -3 20 -2 37 3 37 5 0 11 7 15 15 4 13 2 14 -14 5 -20 -11 -70
-4 -70 10 0 4 -12 11 -27 14 -16 4 -35 9 -43 11 -8 1 -26 0 -40 -4z m81 -60
c64 -65 20 -171 -71 -171 -58 0 -100 42 -100 100 0 91 106 135 171 71z m-201
-1 c0 -5 -5 -10 -11 -10 -5 0 -7 5 -4 10 3 6 8 10 11 10 2 0 4 -4 4 -10z m137
-191 c-26 -15 -57 -19 -57 -7 0 5 6 8 13 5 8 -3 20 -1 28 4 8 5 19 9 24 9 6
-1 2 -5 -8 -11z"/>
<path d="M1525 765 c-50 -49 -15 -135 55 -135 43 0 80 39 80 83 0 70 -85 103
-135 52z m75 -5 c34 -18 44 -48 25 -76 -17 -26 -62 -33 -83 -12 -20 20 -14 65
10 82 27 19 24 19 48 6z"/>
<path d="M1551 736 c-16 -19 -11 -46 12 -60 25 -16 52 4 52 40 0 24 -5 30 -26
32 -14 2 -31 -4 -38 -12z"/>
<path d="M2223 804 c-3 -10 -11 -22 -17 -26 -6 -4 -8 -10 -4 -13 4 -4 14 5 24
19 9 15 14 29 11 33 -4 3 -10 -3 -14 -13z"/>
<path d="M1835 788 c11 -6 28 -20 38 -31 9 -11 17 -16 17 -10 0 14 -44 53 -61
53 -9 -1 -7 -5 6 -12z"/>
<path d="M1774 767 c-5 -14 1 -66 9 -74 3 -2 4 17 3 42 -1 47 -3 54 -12 32z"/>
<path d="M1813 752 c-9 -6 -10 -22 -4 -58 4 -28 6 -67 5 -87 -2 -21 1 -48 6
-62 8 -22 14 -24 57 -20 26 2 51 4 55 5 4 0 9 9 13 19 3 11 15 23 26 26 27 9
24 41 -7 72 -26 26 -26 45 1 23 12 -10 15 -9 15 5 0 14 -6 16 -30 11 -26 -5
-36 0 -69 34 -40 41 -48 45 -68 32z m102 -171 c3 -5 1 -12 -5 -16 -5 -3 -10 1
-10 9 0 18 6 21 15 7z"/>
<path d="M1975 739 c-21 -5 -24 -7 -10 -9 29 -3 59 1 67 9 10 8 -17 9 -57 0z"/>
<path d="M1990 661 c0 -5 5 -11 12 -13 6 -2 12 -13 12 -24 2 -17 7 -24 21 -24
8 0 -23 58 -35 65 -5 3 -10 2 -10 -4z"/>
<path d="M1718 608 c-24 -30 -13 -37 12 -8 22 25 24 30 13 30 -5 0 -16 -10
-25 -22z"/>
<path d="M1780 556 c0 -22 22 -66 32 -66 5 0 2 10 -6 21 -8 12 -12 27 -10 34
3 7 1 16 -5 20 -6 3 -11 -1 -11 -9z"/>
<path d="M1490 550 c0 -5 10 -10 23 -10 18 0 19 2 7 10 -19 13 -30 13 -30 0z"/>
<path d="M2299 528 c-1 -18 -2 -50 -3 -70 -2 -61 12 -28 16 40 2 34 1 62 -4
62 -4 0 -9 -15 -9 -32z"/>
<path d="M1540 540 c0 -6 7 -10 15 -10 8 0 15 2 15 4 0 2 -7 6 -15 10 -8 3
-15 1 -15 -4z"/>
<path d="M1510 466 c0 -9 30 -14 35 -6 4 6 -3 10 -14 10 -12 0 -21 -2 -21 -4z"/>
<path d="M1616 360 c3 -14 10 -29 15 -34 14 -16 10 6 -7 34 l-15 25 7 -25z"/>
<path d="M2176 337 c3 -10 9 -15 12 -12 3 3 0 11 -7 18 -10 9 -11 8 -5 -6z"/>
<path d="M2202 240 c-15 -34 -59 -51 -73 -29 -7 11 -9 10 -9 -3 0 -10 3 -18 8
-19 4 0 15 -2 25 -4 21 -4 67 42 67 67 0 25 -3 23 -18 -12z"/>
<path d="M1910 221 c0 -5 5 -13 10 -16 6 -3 10 -2 10 4 0 5 -4 13 -10 16 -5 3
-10 2 -10 -4z"/>
<path d="M2048 150 c-4 -13 -49 -19 -75 -9 -13 5 -23 5 -23 0 0 -23 84 -29
106 -7 8 8 14 17 14 20 0 10 -18 7 -22 -4z"/>
<path d="M230 770 c-26 -26 -22 -44 12 -48 29 -4 60 23 56 47 -5 24 -44 25
-68 1z"/>
</g>
</svg>
